<svg xmlns="http://www.w3.org/2000/svg" width="70" height="24" fill="none"><g clip-path="url(#clip0)"><g clip-path="url(#clip1)"><path fill="#BBB" d="M63.913.278H5.08c-.402 0-.746.057-1.147.115a3.46 3.46 0 00-1.09.344c-.344.172-.63.401-.917.688a3.498 3.498 0 00-.688.918 3.997 3.997 0 00-.344 1.089c-.058.401-.115.803-.115 1.147V18.858c0 .4.057.745.115 1.146.057.402.172.746.344 1.09.172.401.401.688.688.975.287.287.573.516.917.688.345.172.689.287 1.09.344.401.057.745.115 1.147.115H65.06c.402 0 .746-.058 1.147-.115a3.461 3.461 0 001.09-.344c.344-.172.63-.402.917-.688.287-.287.516-.574.689-.918a3.46 3.46 0 00.343-1.09c.058-.4.115-.745.115-1.146v-.516V5.726v-.631-.516c0-.401-.057-.746-.115-1.147a3.46 3.46 0 00-.343-1.09 3.5 3.5 0 00-.689-.917 3.497 3.497 0 00-.917-.688 3.459 3.459 0 00-1.09-.344c-.401-.058-.745-.115-1.147-.115h-1.146z"/><path fill="#000" d="M5.595 22.7h-.516c-.344 0-.688 0-1.09-.115a4.84 4.84 0 01-.975-.287c-.286-.172-.573-.344-.802-.573-.23-.23-.46-.516-.574-.803-.172-.287-.23-.574-.286-.975-.058-.401-.115-.803-.115-1.09V5.096v-.516c0-.287 0-.688.114-1.09.115-.286.173-.63.345-.917.172-.287.344-.574.573-.803.23-.23.516-.401.803-.573.287-.172.63-.23.975-.287.344-.115.745-.115 1.032-.115H65.06c.287 0 .689 0 1.09.115.344.057.63.172.975.287.287.172.573.344.803.573.229.23.458.516.573.803.172.287.23.63.287.917.057.344.114.746.114 1.09V18.858c0 .344-.057.688-.114 1.089a4.846 4.846 0 01-.287.975c-.172.287-.344.573-.573.803-.23.23-.516.458-.803.573-.287.172-.574.23-.975.287-.344.057-.746.057-1.09.114H5.594z"/><path fill="#fff" d="M15 11.919c0-1.606 1.318-2.351 1.376-2.409-.746-1.09-1.893-1.204-2.294-1.261-.975-.115-1.892.573-2.408.573s-1.262-.573-2.065-.573c-1.032 0-2.007.63-2.58 1.548-1.09 1.893-.287 4.76.803 6.308.516.745 1.146 1.606 1.95 1.606.802-.058 1.089-.516 2.064-.516.974 0 1.204.516 2.064.516.86 0 1.376-.746 1.892-1.549.631-.86.86-1.72.86-1.777 0 .057-1.662-.574-1.662-2.466zM13.394 7.274c.401-.516.745-1.261.63-2.007-.63 0-1.376.401-1.834.975-.402.459-.746 1.204-.631 1.95.688 0 1.433-.402 1.835-.918zM25.035 15.818h-2.696l-.63 1.95h-1.147l2.58-7.11h1.147l2.58 7.11h-1.146l-.688-1.95zm-2.409-.86h2.18l-1.09-3.154h-.058l-1.032 3.154zM32.432 15.188c0 1.605-.86 2.637-2.18 2.637-.745 0-1.318-.344-1.605-.917v2.58h-1.09v-6.881h1.033v.86c.287-.573.917-.917 1.663-.917 1.261-.058 2.179 1.032 2.179 2.637zm-1.147 0c0-1.033-.516-1.72-1.376-1.72-.803 0-1.377.687-1.377 1.72 0 1.032.574 1.72 1.377 1.72.86 0 1.376-.688 1.376-1.72zM38.11 15.188c0 1.605-.861 2.637-2.18 2.637-.745 0-1.319-.344-1.606-.917v2.58h-1.09v-6.881h1.033v.86c.287-.573.918-.917 1.663-.917 1.319-.058 2.18 1.032 2.18 2.637zm-1.09 0c0-1.033-.517-1.72-1.377-1.72-.803 0-1.376.687-1.376 1.72 0 1.032.573 1.72 1.376 1.72.86 0 1.377-.688 1.377-1.72zM41.894 15.76c.057.69.745 1.148 1.72 1.148.917 0 1.548-.459 1.548-1.09 0-.573-.401-.86-1.319-1.09l-.917-.229c-1.32-.344-1.893-.917-1.893-1.892 0-1.204 1.09-2.064 2.58-2.064 1.492 0 2.524.86 2.581 2.064h-1.09c-.056-.688-.63-1.147-1.49-1.147s-1.434.459-1.434 1.09c0 .516.402.802 1.32 1.032l.802.172c1.434.344 2.064.917 2.064 1.95 0 1.319-1.09 2.179-2.752 2.179-1.606 0-2.638-.803-2.695-2.122h.975zM48.545 11.345v1.205h.975v.86h-.975v2.867c0 .459.172.63.631.63h.344v.861c-.114.057-.344.057-.573.057-1.032 0-1.434-.401-1.434-1.376v-2.982h-.745v-.86h.745v-1.204h1.032v-.058zM50.151 15.188c0-1.606.975-2.638 2.466-2.638 1.49 0 2.466 1.032 2.466 2.637 0 1.664-.975 2.638-2.466 2.638-1.548 0-2.466-1.032-2.466-2.637zm3.842 0c0-1.147-.516-1.778-1.376-1.778-.86 0-1.376.63-1.376 1.777 0 1.147.516 1.778 1.376 1.778.86 0 1.376-.688 1.376-1.777zM55.943 12.55h1.032v.917c.172-.573.63-.917 1.262-.917.172 0 .286 0 .344.057v.975c-.058-.058-.287-.058-.46-.058-.687 0-1.089.46-1.089 1.205v3.096h-1.09V12.55zM63.512 16.22c-.114.917-1.09 1.605-2.236 1.605-1.491 0-2.466-1.032-2.466-2.637 0-1.606.918-2.696 2.408-2.696 1.434 0 2.352.975 2.352 2.58v.345H59.9v.057c0 .86.573 1.491 1.376 1.491.573 0 1.032-.287 1.204-.745h1.032zM59.9 14.67h2.58c0-.802-.516-1.319-1.261-1.319-.746 0-1.262.574-1.32 1.32zM22.454 5.267c1.032 0 1.606.63 1.606 1.72 0 1.09-.574 1.72-1.606 1.72h-1.261v-3.44h1.261zm-.688 2.982h.63c.689 0 1.148-.459 1.148-1.204 0-.746-.402-1.205-1.147-1.205h-.63V8.25zM24.69 7.389c0-.86.46-1.32 1.205-1.32.745 0 1.204.517 1.204 1.32 0 .86-.459 1.319-1.204 1.319-.746.057-1.204-.46-1.204-1.32zm1.893 0c0-.574-.23-.86-.688-.86-.459 0-.688.344-.688.86 0 .573.23.917.688.917.459 0 .688-.344.688-.917zM30.368 8.708h-.516l-.517-1.893h-.057l-.516 1.893h-.516l-.688-2.58h.516l.459 1.949h.057l.516-1.95h.516l.516 1.95h.058l.458-1.95h.517l-.803 2.58zM31.686 6.127h.517v.402h.057c.115-.287.401-.46.745-.46.574 0 .918.345.918.976v1.663h-.516V7.159c0-.401-.172-.63-.574-.63-.401 0-.63.229-.63.63V8.65h-.517V6.127zM34.669 5.095h.516v3.613h-.517V5.095zM35.873 7.389c0-.86.458-1.32 1.204-1.32.745 0 1.204.517 1.204 1.32 0 .86-.459 1.319-1.204 1.319-.746.057-1.204-.46-1.204-1.32zm1.95 0c0-.574-.23-.86-.689-.86-.459 0-.688.344-.688.86 0 .573.23.917.688.917.401 0 .688-.344.688-.917zM38.855 7.962c0-.459.344-.745.974-.745l.688-.058V6.93c0-.287-.172-.401-.516-.401-.286 0-.458.114-.516.286h-.516c.057-.458.459-.745 1.032-.745.631 0 1.033.344 1.033.86v1.778h-.517v-.344h-.057c-.172.286-.459.401-.803.401a.784.784 0 01-.802-.803zm1.663-.23v-.229l-.631.058c-.344 0-.516.172-.516.344 0 .23.229.344.458.344.402.057.688-.172.688-.516zM41.664 7.389c0-.803.402-1.32 1.09-1.32.344 0 .63.173.803.46h.057V5.095h.516v3.613h-.516v-.402h-.057a.915.915 0 01-.803.459c-.63 0-1.09-.516-1.09-1.376zm.574 0c0 .573.287.86.688.86.401 0 .688-.344.688-.86s-.287-.86-.688-.86c-.459 0-.688.344-.688.86zM46.195 7.389c0-.86.458-1.32 1.204-1.32.745 0 1.204.517 1.204 1.32 0 .86-.459 1.319-1.204 1.319-.746.057-1.204-.46-1.204-1.32zm1.95 0c0-.574-.23-.86-.689-.86-.459 0-.688.344-.688.86 0 .573.23.917.688.917.402 0 .688-.344.688-.917zM49.348 6.127h.517v.402h.057c.114-.287.401-.46.745-.46.574 0 .918.345.918.976v1.663h-.516V7.159c0-.401-.172-.63-.574-.63-.401 0-.63.229-.63.63V8.65h-.517V6.127zM54.395 5.496v.631h.573v.459h-.574v1.319c0 .287.115.401.345.401h.172v.402h-.287c-.574 0-.803-.172-.803-.688V6.586h-.401v-.401h.401v-.689h.574zM55.656 5.095h.516v1.434h.058c.114-.287.401-.46.803-.46.573 0 .917.345.917.976v1.663h-.516V7.159c0-.401-.172-.63-.573-.63-.402 0-.631.286-.631.63V8.65h-.516V5.095h-.058zM60.874 8.02c-.114.458-.516.745-1.146.745-.746 0-1.205-.516-1.205-1.319 0-.803.46-1.376 1.205-1.376.745 0 1.146.516 1.146 1.319v.172H59.04c0 .459.287.745.689.745.286 0 .516-.114.63-.286h.517zm-1.835-.86h1.32c0-.402-.287-.689-.631-.689-.402.058-.631.287-.689.688z"/></g></g><defs><clipPath id="clip0"><path fill="#fff" d="M0 0h68.62v22.938H0z" transform="translate(.778 .278)"/></clipPath><clipPath id="clip1"><path fill="#fff" d="M0 0h68.641v22.938H0z" transform="translate(.778 .278)"/></clipPath></defs></svg>