<svg width="59" height="59" viewBox="0 0 59 59" fill="none" xmlns="http://www.w3.org/2000/svg">
<g clip-path="url(#clip0)">
<path d="M29.0498 0.358287C13.0325 0.344806 0.0408347 13.3186 0.0273542 29.3359C0.0138738 45.3531 12.9876 58.3448 29.0049 58.3583C45.0201 58.3448 58.0027 45.3734 58.0274 29.3583C58.0274 13.3499 45.0581 0.371767 29.0498 0.358287ZM29.0049 53.5325C15.6542 53.5325 4.83082 42.709 4.83082 29.3583C4.83082 16.0075 15.6542 5.18418 29.0049 5.18418C42.3512 5.19766 53.1656 16.0121 53.179 29.3583C53.179 42.709 42.3557 53.5325 29.0049 53.5325Z" fill="url(#paint0_linear)"/>
<path d="M36.8383 27.9442C38.7777 26.851 39.8259 24.6626 39.4645 22.4673C39.0156 19.0781 34.9754 17.7986 31.788 17.5293V12.4341H28.6456V17.4844H26.5357V12.4341H23.3933V17.4844H17.0635V20.7391H19.4203C20.4753 20.7391 20.9915 21.0534 20.9915 21.9063V35.89C20.9915 37.0572 20.4079 37.4164 19.7794 37.4164H17.3777V40.7384H23.483V45.9009H26.6479V40.7384H28.7577V45.9009H31.8329V40.7384H32.5062C38.9706 40.7384 41.1254 37.5735 41.1254 33.264C41.0738 30.7229 39.3118 28.5367 36.8383 27.9442ZM26.5356 20.9411H28.7802C30.3514 20.9411 33.4489 21.2105 33.4489 23.7693C33.5567 25.4393 32.3468 26.9028 30.688 27.1137H26.5356V20.9411ZM30.0147 37.102V37.0796H26.5356V30.3458H30.5759C31.5186 30.3458 35.065 30.6601 35.065 33.174C35.065 35.6879 33.3816 37.102 30.0147 37.102Z" fill="url(#paint1_linear)"/>
</g>
<defs>
<linearGradient id="paint0_linear" x1="31.9274" y1="-8.77136" x2="35.1996" y2="93.9744" gradientUnits="userSpaceOnUse">
<stop stop-color="#FD749B"/>
<stop offset="1" stop-color="#281AC8"/>
</linearGradient>
<linearGradient id="paint1_linear" x1="30.2976" y1="7.16622" x2="32.9212" y2="66.3958" gradientUnits="userSpaceOnUse">
<stop stop-color="#FD749B"/>
<stop offset="1" stop-color="#281AC8"/>
</linearGradient>
<clipPath id="clip0">
<rect width="58" height="58" fill="white" transform="translate(0.0273438 0.358398)"/>
</clipPath>
</defs>
</svg>
