<svg width="1067" height="389" viewBox="0 0 1067 389" fill="none" xmlns="http://www.w3.org/2000/svg">
<path d="M810.067 164.604C833.371 164.604 852.263 145.712 852.263 122.408C852.263 99.1044 833.371 80.2129 810.067 80.2129C786.764 80.2129 767.872 99.1044 767.872 122.408C767.872 145.712 786.764 164.604 810.067 164.604Z" fill="#D8D8D8"/>
<path d="M157.502 218.079C195.573 218.079 226.435 187.217 226.435 149.146C226.435 111.075 195.573 80.2129 157.502 80.2129C119.432 80.2129 88.5693 111.075 88.5693 149.146C88.5693 187.217 119.432 218.079 157.502 218.079Z" fill="#D8D8D8"/>
<path d="M484.204 302.47C507.508 302.47 526.4 283.578 526.4 260.274C526.4 236.971 507.508 218.079 484.204 218.079C460.9 218.079 442.009 236.971 442.009 260.274C442.009 283.578 460.9 302.47 484.204 302.47Z" fill="#D8D8D8"/>
<path d="M42.1964 313.332C65.5002 313.332 84.3917 294.441 84.3917 271.137C84.3917 247.833 65.5002 228.941 42.1964 228.941C18.8925 228.941 0.000976562 247.833 0.000976562 271.137C0.000976562 294.441 18.8925 313.332 42.1964 313.332Z" fill="#D8D8D8"/>
<path d="M924.54 267.377C947.844 267.377 966.735 248.486 966.735 225.182C966.735 201.878 947.844 182.986 924.54 182.986C901.236 182.986 882.345 201.878 882.345 225.182C882.345 248.486 901.236 267.377 924.54 267.377Z" fill="#D8D8D8"/>
<path d="M821.767 388.531C845.071 388.531 863.962 369.64 863.962 346.336C863.962 323.032 845.071 304.141 821.767 304.141C798.463 304.141 779.571 323.032 779.571 346.336C779.571 369.64 798.463 388.531 821.767 388.531Z" fill="#D8D8D8"/>
<path d="M1024.81 84.3908C1048.11 84.3908 1067 65.4992 1067 42.1954C1067 18.8915 1048.11 0 1024.81 0C1001.5 0 982.61 18.8915 982.61 42.1954C982.61 65.4992 1001.5 84.3908 1024.81 84.3908Z" fill="#D8D8D8"/>
<path d="M661.341 233.119C684.645 233.119 703.536 214.228 703.536 190.924C703.536 167.62 684.645 148.729 661.341 148.729C638.037 148.729 619.146 167.62 619.146 190.924C619.146 214.228 638.037 233.119 661.341 233.119Z" fill="#D8D8D8"/>
<path d="M308.321 167.111C327.241 167.111 342.579 151.773 342.579 132.853C342.579 113.933 327.241 98.5957 308.321 98.5957C289.401 98.5957 274.063 113.933 274.063 132.853C274.063 151.773 289.401 167.111 308.321 167.111Z" fill="#D8D8D8"/>
<path d="M767.873 251.501C780.333 251.501 790.433 241.4 790.433 228.941C790.433 216.481 780.333 206.381 767.873 206.381C755.414 206.381 745.313 216.481 745.313 228.941C745.313 241.4 755.414 251.501 767.873 251.501Z" fill="#D8D8D8"/>
<path d="M505.509 172.124C523.506 172.124 538.096 157.535 538.096 139.538C538.096 121.541 523.506 106.951 505.509 106.951C487.512 106.951 472.923 121.541 472.923 139.538C472.923 157.535 487.512 172.124 505.509 172.124Z" fill="#D8D8D8"/>
<path d="M263.2 289.936C275.659 289.936 285.759 279.836 285.759 267.376C285.759 254.917 275.659 244.816 263.2 244.816C250.74 244.816 240.64 254.917 240.64 267.376C240.64 279.836 250.74 289.936 263.2 289.936Z" fill="#D8D8D8"/>
<path d="M376.835 235.625C392.986 235.625 406.079 222.532 406.079 206.381C406.079 190.23 392.986 177.137 376.835 177.137C360.684 177.137 347.591 190.23 347.591 206.381C347.591 222.532 360.684 235.625 376.835 235.625Z" fill="#D8D8D8"/>
</svg>
