<svg width="145" height="33" viewBox="0 0 145 33" fill="none" xmlns="http://www.w3.org/2000/svg">
<mask id="path-1-outside-1" maskUnits="userSpaceOnUse" x="46.5664" y="11.5891" width="98" height="18" fill="black">
<rect fill="white" x="46.5664" y="11.5891" width="98" height="18"/>
<path d="M47.5664 21.0943C47.5664 19.6905 47.8848 18.4312 48.5217 17.3165C49.1586 16.188 50.0239 15.3072 51.1177 14.6741C52.2253 14.041 53.4506 13.7245 54.7936 13.7245C56.372 13.7245 57.7496 14.103 58.9264 14.8599C60.1033 15.6168 60.9617 16.6903 61.5016 18.0803H59.2379C58.8364 17.2133 58.2549 16.5458 57.4934 16.0779C56.7458 15.61 55.8459 15.376 54.7936 15.376C53.7829 15.376 52.8761 15.61 52.073 16.0779C51.27 16.5458 50.6401 17.2133 50.1832 18.0803C49.7263 18.9336 49.4978 19.9382 49.4978 21.0943C49.4978 22.2365 49.7263 23.2412 50.1832 24.1082C50.6401 24.9615 51.27 25.6221 52.073 26.09C52.8761 26.5579 53.7829 26.7919 54.7936 26.7919C55.8459 26.7919 56.7458 26.5648 57.4934 26.1107C58.2549 25.6427 58.8364 24.9753 59.2379 24.1082H61.5016C60.9617 25.4845 60.1033 26.551 58.9264 27.308C57.7496 28.0511 56.372 28.4227 54.7936 28.4227C53.4506 28.4227 52.2253 28.1131 51.1177 27.4938C50.0239 26.8607 49.1586 25.9868 48.5217 24.872C47.8848 23.7573 47.5664 22.498 47.5664 21.0943Z"/>
<path d="M69.2784 28.4847C68.2123 28.4847 67.2431 28.2438 66.3709 27.7621C65.5125 27.2805 64.8341 26.5992 64.3356 25.7184C63.8511 24.8239 63.6088 23.7917 63.6088 22.6219C63.6088 21.4658 63.858 20.4474 64.3564 19.5666C64.8687 18.6721 65.561 17.9908 66.4332 17.5229C67.3055 17.0412 68.2815 16.8004 69.3615 16.8004C70.4414 16.8004 71.4175 17.0412 72.2897 17.5229C73.162 17.9908 73.8473 18.6652 74.3458 19.546C74.858 20.4268 75.1142 21.4521 75.1142 22.6219C75.1142 23.7917 74.8511 24.8239 74.325 25.7184C73.8127 26.5992 73.1135 27.2805 72.2274 27.7621C71.3413 28.2438 70.3583 28.4847 69.2784 28.4847ZM69.2784 26.8332C69.9568 26.8332 70.5937 26.6749 71.189 26.3584C71.7844 26.0418 72.2621 25.567 72.622 24.934C72.9958 24.3009 73.1828 23.5302 73.1828 22.6219C73.1828 21.7136 73.0028 20.9429 72.6428 20.3098C72.2828 19.6767 71.8121 19.2088 71.2306 18.906C70.6491 18.5895 70.0191 18.4312 69.3407 18.4312C68.6484 18.4312 68.0116 18.5895 67.4301 18.906C66.8624 19.2088 66.4055 19.6767 66.0594 20.3098C65.7132 20.9429 65.5402 21.7136 65.5402 22.6219C65.5402 23.544 65.7063 24.3215 66.0386 24.9546C66.3847 25.5877 66.8416 26.0625 67.4093 26.379C67.9769 26.6818 68.6 26.8332 69.2784 26.8332Z"/>
<path d="M78.5751 15.1489C78.2151 15.1489 77.9105 15.0251 77.6613 14.7773C77.4121 14.5296 77.2875 14.2268 77.2875 13.869C77.2875 13.5112 77.4121 13.2084 77.6613 12.9607C77.9105 12.713 78.2151 12.5891 78.5751 12.5891C78.9212 12.5891 79.212 12.713 79.4474 12.9607C79.6966 13.2084 79.8212 13.5112 79.8212 13.869C79.8212 14.2268 79.6966 14.5296 79.4474 14.7773C79.212 15.0251 78.9212 15.1489 78.5751 15.1489ZM79.4889 16.9862V28.2989H77.599V16.9862H79.4889Z"/>
<path d="M88.2549 16.7798C89.6394 16.7798 90.7609 17.1995 91.6193 18.039C92.4777 18.8648 92.9069 20.0621 92.9069 21.631V28.2989H91.0378V21.8994C91.0378 20.7708 90.7539 19.9107 90.1863 19.3189C89.6186 18.7134 88.8433 18.4106 87.8603 18.4106C86.8634 18.4106 86.0673 18.7203 85.472 19.3396C84.8905 19.9589 84.5997 20.8603 84.5997 22.0439V28.2989H82.7099V16.9862H84.5997V18.5964C84.9736 18.0184 85.4789 17.5711 86.1158 17.2546C86.7665 16.938 87.4795 16.7798 88.2549 16.7798Z"/>
<path d="M103.242 20.8878C103.768 20.9704 104.246 21.1837 104.675 21.5278C105.118 21.8718 105.464 22.2985 105.713 22.8077C105.976 23.3169 106.108 23.8605 106.108 24.4385C106.108 25.1679 105.921 25.8285 105.547 26.4203C105.173 26.9983 104.626 27.4594 103.907 27.8034C103.2 28.1337 102.363 28.2989 101.394 28.2989H95.994V13.9103H101.186C102.169 13.9103 103.007 14.0754 103.699 14.4057C104.391 14.7223 104.91 15.1558 105.256 15.7063C105.603 16.2568 105.776 16.8761 105.776 17.5642C105.776 18.4175 105.54 19.1262 105.07 19.6905C104.613 20.241 104.003 20.6401 103.242 20.8878ZM97.8839 20.124H101.061C101.947 20.124 102.633 19.9176 103.117 19.5047C103.602 19.0918 103.844 18.5207 103.844 17.7913C103.844 17.0619 103.602 16.4907 103.117 16.0779C102.633 15.665 101.934 15.4586 101.02 15.4586H97.8839V20.124ZM101.227 26.7506C102.169 26.7506 102.903 26.5304 103.429 26.09C103.955 25.6496 104.218 25.0372 104.218 24.2527C104.218 23.4545 103.941 22.8283 103.387 22.3742C102.834 21.9062 102.093 21.6723 101.165 21.6723H97.8839V26.7506H101.227Z"/>
<path d="M108.024 22.6012C108.024 21.4452 108.26 20.4337 108.731 19.5666C109.201 18.6858 109.845 18.0046 110.662 17.5229C111.493 17.0412 112.413 16.8004 113.424 16.8004C114.421 16.8004 115.286 17.0137 116.02 17.4404C116.754 17.867 117.301 18.4037 117.661 19.0505V16.9862H119.571V28.2989H117.661V26.1932C117.287 26.8538 116.726 27.4043 115.979 27.8447C115.245 28.2713 114.386 28.4847 113.403 28.4847C112.393 28.4847 111.479 28.2369 110.662 27.7415C109.845 27.246 109.201 26.551 108.731 25.6565C108.26 24.7619 108.024 23.7435 108.024 22.6012ZM117.661 22.6219C117.661 21.7686 117.488 21.0254 117.142 20.3924C116.795 19.7593 116.325 19.2776 115.729 18.9473C115.148 18.6033 114.504 18.4312 113.798 18.4312C113.092 18.4312 112.448 18.5964 111.866 18.9267C111.285 19.257 110.821 19.7387 110.475 20.3717C110.129 21.0048 109.956 21.748 109.956 22.6012C109.956 23.4683 110.129 24.2252 110.475 24.872C110.821 25.5051 111.285 25.9937 111.866 26.3377C112.448 26.668 113.092 26.8332 113.798 26.8332C114.504 26.8332 115.148 26.668 115.729 26.3377C116.325 25.9937 116.795 25.5051 117.142 24.872C117.488 24.2252 117.661 23.4752 117.661 22.6219Z"/>
<path d="M126.794 28.4847C125.922 28.4847 125.14 28.3402 124.447 28.0511C123.755 27.7484 123.208 27.3355 122.807 26.8125C122.405 26.2758 122.184 25.6634 122.142 24.9753H124.094C124.15 25.5395 124.413 26.0006 124.883 26.3584C125.368 26.7162 125.998 26.8951 126.773 26.8951C127.493 26.8951 128.061 26.7368 128.476 26.4203C128.892 26.1038 129.099 25.7047 129.099 25.223C129.099 24.7275 128.878 24.3628 128.435 24.1289C127.992 23.8811 127.306 23.6403 126.379 23.4063C125.534 23.1861 124.842 22.9659 124.302 22.7457C123.776 22.5118 123.319 22.1746 122.931 21.7342C122.557 21.2801 122.37 20.6883 122.37 19.9589C122.37 19.3808 122.544 18.851 122.89 18.3693C123.236 17.8876 123.727 17.5092 124.364 17.2339C125.001 16.9449 125.728 16.8004 126.545 16.8004C127.805 16.8004 128.822 17.1169 129.598 17.75C130.373 18.3831 130.788 19.2501 130.844 20.3511H128.954C128.912 19.7593 128.67 19.2845 128.227 18.9267C127.798 18.5689 127.216 18.39 126.483 18.39C125.804 18.39 125.264 18.5345 124.863 18.8235C124.461 19.1125 124.26 19.4909 124.26 19.9589C124.26 20.3305 124.378 20.6401 124.613 20.8878C124.863 21.1218 125.167 21.3145 125.527 21.4658C125.901 21.6035 126.413 21.7617 127.064 21.9406C127.881 22.1608 128.545 22.381 129.058 22.6012C129.57 22.8077 130.006 23.1242 130.366 23.5508C130.74 23.9775 130.934 24.5349 130.948 25.223C130.948 25.8423 130.775 26.3997 130.428 26.8951C130.082 27.3905 129.591 27.7828 128.954 28.0718C128.331 28.347 127.611 28.4847 126.794 28.4847Z"/>
<path d="M143.999 22.209C143.999 22.5668 143.979 22.9453 143.937 23.3444H134.841C134.91 24.4592 135.291 25.3331 135.983 25.9661C136.689 26.5855 137.541 26.8951 138.537 26.8951C139.354 26.8951 140.033 26.7093 140.573 26.3377C141.127 25.9524 141.514 25.4432 141.736 24.8101H143.771C143.466 25.8973 142.857 26.785 141.943 27.4731C141.03 28.1475 139.894 28.4847 138.537 28.4847C137.458 28.4847 136.488 28.2438 135.63 27.7621C134.785 27.2805 134.121 26.5992 133.636 25.7184C133.152 24.8239 132.909 23.7917 132.909 22.6219C132.909 21.4521 133.145 20.4268 133.615 19.546C134.086 18.6652 134.744 17.9908 135.588 17.5229C136.447 17.0412 137.43 16.8004 138.537 16.8004C139.617 16.8004 140.573 17.0344 141.403 17.5023C142.234 17.9702 142.871 18.617 143.314 19.4428C143.771 20.2548 143.999 21.1768 143.999 22.209ZM142.047 21.8168C142.047 21.1011 141.888 20.4887 141.57 19.9795C141.251 19.4565 140.815 19.0643 140.261 18.8028C139.721 18.5276 139.119 18.39 138.454 18.39C137.499 18.39 136.682 18.6927 136.004 19.2983C135.339 19.9038 134.958 20.7433 134.862 21.8168H142.047Z"/>
</mask>
<path d="M47.5664 21.0943C47.5664 19.6905 47.8848 18.4312 48.5217 17.3165C49.1586 16.188 50.0239 15.3072 51.1177 14.6741C52.2253 14.041 53.4506 13.7245 54.7936 13.7245C56.372 13.7245 57.7496 14.103 58.9264 14.8599C60.1033 15.6168 60.9617 16.6903 61.5016 18.0803H59.2379C58.8364 17.2133 58.2549 16.5458 57.4934 16.0779C56.7458 15.61 55.8459 15.376 54.7936 15.376C53.7829 15.376 52.8761 15.61 52.073 16.0779C51.27 16.5458 50.6401 17.2133 50.1832 18.0803C49.7263 18.9336 49.4978 19.9382 49.4978 21.0943C49.4978 22.2365 49.7263 23.2412 50.1832 24.1082C50.6401 24.9615 51.27 25.6221 52.073 26.09C52.8761 26.5579 53.7829 26.7919 54.7936 26.7919C55.8459 26.7919 56.7458 26.5648 57.4934 26.1107C58.2549 25.6427 58.8364 24.9753 59.2379 24.1082H61.5016C60.9617 25.4845 60.1033 26.551 58.9264 27.308C57.7496 28.0511 56.372 28.4227 54.7936 28.4227C53.4506 28.4227 52.2253 28.1131 51.1177 27.4938C50.0239 26.8607 49.1586 25.9868 48.5217 24.872C47.8848 23.7573 47.5664 22.498 47.5664 21.0943Z" fill="#5C5C5C"/>
<path d="M69.2784 28.4847C68.2123 28.4847 67.2431 28.2438 66.3709 27.7621C65.5125 27.2805 64.8341 26.5992 64.3356 25.7184C63.8511 24.8239 63.6088 23.7917 63.6088 22.6219C63.6088 21.4658 63.858 20.4474 64.3564 19.5666C64.8687 18.6721 65.561 17.9908 66.4332 17.5229C67.3055 17.0412 68.2815 16.8004 69.3615 16.8004C70.4414 16.8004 71.4175 17.0412 72.2897 17.5229C73.162 17.9908 73.8473 18.6652 74.3458 19.546C74.858 20.4268 75.1142 21.4521 75.1142 22.6219C75.1142 23.7917 74.8511 24.8239 74.325 25.7184C73.8127 26.5992 73.1135 27.2805 72.2274 27.7621C71.3413 28.2438 70.3583 28.4847 69.2784 28.4847ZM69.2784 26.8332C69.9568 26.8332 70.5937 26.6749 71.189 26.3584C71.7844 26.0418 72.2621 25.567 72.622 24.934C72.9958 24.3009 73.1828 23.5302 73.1828 22.6219C73.1828 21.7136 73.0028 20.9429 72.6428 20.3098C72.2828 19.6767 71.8121 19.2088 71.2306 18.906C70.6491 18.5895 70.0191 18.4312 69.3407 18.4312C68.6484 18.4312 68.0116 18.5895 67.4301 18.906C66.8624 19.2088 66.4055 19.6767 66.0594 20.3098C65.7132 20.9429 65.5402 21.7136 65.5402 22.6219C65.5402 23.544 65.7063 24.3215 66.0386 24.9546C66.3847 25.5877 66.8416 26.0625 67.4093 26.379C67.9769 26.6818 68.6 26.8332 69.2784 26.8332Z" fill="#5C5C5C"/>
<path d="M78.5751 15.1489C78.2151 15.1489 77.9105 15.0251 77.6613 14.7773C77.4121 14.5296 77.2875 14.2268 77.2875 13.869C77.2875 13.5112 77.4121 13.2084 77.6613 12.9607C77.9105 12.713 78.2151 12.5891 78.5751 12.5891C78.9212 12.5891 79.212 12.713 79.4474 12.9607C79.6966 13.2084 79.8212 13.5112 79.8212 13.869C79.8212 14.2268 79.6966 14.5296 79.4474 14.7773C79.212 15.0251 78.9212 15.1489 78.5751 15.1489ZM79.4889 16.9862V28.2989H77.599V16.9862H79.4889Z" fill="#5C5C5C"/>
<path d="M88.2549 16.7798C89.6394 16.7798 90.7609 17.1995 91.6193 18.039C92.4777 18.8648 92.9069 20.0621 92.9069 21.631V28.2989H91.0378V21.8994C91.0378 20.7708 90.7539 19.9107 90.1863 19.3189C89.6186 18.7134 88.8433 18.4106 87.8603 18.4106C86.8634 18.4106 86.0673 18.7203 85.472 19.3396C84.8905 19.9589 84.5997 20.8603 84.5997 22.0439V28.2989H82.7099V16.9862H84.5997V18.5964C84.9736 18.0184 85.4789 17.5711 86.1158 17.2546C86.7665 16.938 87.4795 16.7798 88.2549 16.7798Z" fill="#5C5C5C"/>
<path d="M103.242 20.8878C103.768 20.9704 104.246 21.1837 104.675 21.5278C105.118 21.8718 105.464 22.2985 105.713 22.8077C105.976 23.3169 106.108 23.8605 106.108 24.4385C106.108 25.1679 105.921 25.8285 105.547 26.4203C105.173 26.9983 104.626 27.4594 103.907 27.8034C103.2 28.1337 102.363 28.2989 101.394 28.2989H95.994V13.9103H101.186C102.169 13.9103 103.007 14.0754 103.699 14.4057C104.391 14.7223 104.91 15.1558 105.256 15.7063C105.603 16.2568 105.776 16.8761 105.776 17.5642C105.776 18.4175 105.54 19.1262 105.07 19.6905C104.613 20.241 104.003 20.6401 103.242 20.8878ZM97.8839 20.124H101.061C101.947 20.124 102.633 19.9176 103.117 19.5047C103.602 19.0918 103.844 18.5207 103.844 17.7913C103.844 17.0619 103.602 16.4907 103.117 16.0779C102.633 15.665 101.934 15.4586 101.02 15.4586H97.8839V20.124ZM101.227 26.7506C102.169 26.7506 102.903 26.5304 103.429 26.09C103.955 25.6496 104.218 25.0372 104.218 24.2527C104.218 23.4545 103.941 22.8283 103.387 22.3742C102.834 21.9062 102.093 21.6723 101.165 21.6723H97.8839V26.7506H101.227Z" fill="#5C5C5C"/>
<path d="M108.024 22.6012C108.024 21.4452 108.26 20.4337 108.731 19.5666C109.201 18.6858 109.845 18.0046 110.662 17.5229C111.493 17.0412 112.413 16.8004 113.424 16.8004C114.421 16.8004 115.286 17.0137 116.02 17.4404C116.754 17.867 117.301 18.4037 117.661 19.0505V16.9862H119.571V28.2989H117.661V26.1932C117.287 26.8538 116.726 27.4043 115.979 27.8447C115.245 28.2713 114.386 28.4847 113.403 28.4847C112.393 28.4847 111.479 28.2369 110.662 27.7415C109.845 27.246 109.201 26.551 108.731 25.6565C108.26 24.7619 108.024 23.7435 108.024 22.6012ZM117.661 22.6219C117.661 21.7686 117.488 21.0254 117.142 20.3924C116.795 19.7593 116.325 19.2776 115.729 18.9473C115.148 18.6033 114.504 18.4312 113.798 18.4312C113.092 18.4312 112.448 18.5964 111.866 18.9267C111.285 19.257 110.821 19.7387 110.475 20.3717C110.129 21.0048 109.956 21.748 109.956 22.6012C109.956 23.4683 110.129 24.2252 110.475 24.872C110.821 25.5051 111.285 25.9937 111.866 26.3377C112.448 26.668 113.092 26.8332 113.798 26.8332C114.504 26.8332 115.148 26.668 115.729 26.3377C116.325 25.9937 116.795 25.5051 117.142 24.872C117.488 24.2252 117.661 23.4752 117.661 22.6219Z" fill="#5C5C5C"/>
<path d="M126.794 28.4847C125.922 28.4847 125.14 28.3402 124.447 28.0511C123.755 27.7484 123.208 27.3355 122.807 26.8125C122.405 26.2758 122.184 25.6634 122.142 24.9753H124.094C124.15 25.5395 124.413 26.0006 124.883 26.3584C125.368 26.7162 125.998 26.8951 126.773 26.8951C127.493 26.8951 128.061 26.7368 128.476 26.4203C128.892 26.1038 129.099 25.7047 129.099 25.223C129.099 24.7275 128.878 24.3628 128.435 24.1289C127.992 23.8811 127.306 23.6403 126.379 23.4063C125.534 23.1861 124.842 22.9659 124.302 22.7457C123.776 22.5118 123.319 22.1746 122.931 21.7342C122.557 21.2801 122.37 20.6883 122.37 19.9589C122.37 19.3808 122.544 18.851 122.89 18.3693C123.236 17.8876 123.727 17.5092 124.364 17.2339C125.001 16.9449 125.728 16.8004 126.545 16.8004C127.805 16.8004 128.822 17.1169 129.598 17.75C130.373 18.3831 130.788 19.2501 130.844 20.3511H128.954C128.912 19.7593 128.67 19.2845 128.227 18.9267C127.798 18.5689 127.216 18.39 126.483 18.39C125.804 18.39 125.264 18.5345 124.863 18.8235C124.461 19.1125 124.26 19.4909 124.26 19.9589C124.26 20.3305 124.378 20.6401 124.613 20.8878C124.863 21.1218 125.167 21.3145 125.527 21.4658C125.901 21.6035 126.413 21.7617 127.064 21.9406C127.881 22.1608 128.545 22.381 129.058 22.6012C129.57 22.8077 130.006 23.1242 130.366 23.5508C130.74 23.9775 130.934 24.5349 130.948 25.223C130.948 25.8423 130.775 26.3997 130.428 26.8951C130.082 27.3905 129.591 27.7828 128.954 28.0718C128.331 28.347 127.611 28.4847 126.794 28.4847Z" fill="#5C5C5C"/>
<path d="M143.999 22.209C143.999 22.5668 143.979 22.9453 143.937 23.3444H134.841C134.91 24.4592 135.291 25.3331 135.983 25.9661C136.689 26.5855 137.541 26.8951 138.537 26.8951C139.354 26.8951 140.033 26.7093 140.573 26.3377C141.127 25.9524 141.514 25.4432 141.736 24.8101H143.771C143.466 25.8973 142.857 26.785 141.943 27.4731C141.03 28.1475 139.894 28.4847 138.537 28.4847C137.458 28.4847 136.488 28.2438 135.63 27.7621C134.785 27.2805 134.121 26.5992 133.636 25.7184C133.152 24.8239 132.909 23.7917 132.909 22.6219C132.909 21.4521 133.145 20.4268 133.615 19.546C134.086 18.6652 134.744 17.9908 135.588 17.5229C136.447 17.0412 137.43 16.8004 138.537 16.8004C139.617 16.8004 140.573 17.0344 141.403 17.5023C142.234 17.9702 142.871 18.617 143.314 19.4428C143.771 20.2548 143.999 21.1768 143.999 22.209ZM142.047 21.8168C142.047 21.1011 141.888 20.4887 141.57 19.9795C141.251 19.4565 140.815 19.0643 140.261 18.8028C139.721 18.5276 139.119 18.39 138.454 18.39C137.499 18.39 136.682 18.6927 136.004 19.2983C135.339 19.9038 134.958 20.7433 134.862 21.8168H142.047Z" fill="#5C5C5C"/>
<path d="M47.5664 21.0943C47.5664 19.6905 47.8848 18.4312 48.5217 17.3165C49.1586 16.188 50.0239 15.3072 51.1177 14.6741C52.2253 14.041 53.4506 13.7245 54.7936 13.7245C56.372 13.7245 57.7496 14.103 58.9264 14.8599C60.1033 15.6168 60.9617 16.6903 61.5016 18.0803H59.2379C58.8364 17.2133 58.2549 16.5458 57.4934 16.0779C56.7458 15.61 55.8459 15.376 54.7936 15.376C53.7829 15.376 52.8761 15.61 52.073 16.0779C51.27 16.5458 50.6401 17.2133 50.1832 18.0803C49.7263 18.9336 49.4978 19.9382 49.4978 21.0943C49.4978 22.2365 49.7263 23.2412 50.1832 24.1082C50.6401 24.9615 51.27 25.6221 52.073 26.09C52.8761 26.5579 53.7829 26.7919 54.7936 26.7919C55.8459 26.7919 56.7458 26.5648 57.4934 26.1107C58.2549 25.6427 58.8364 24.9753 59.2379 24.1082H61.5016C60.9617 25.4845 60.1033 26.551 58.9264 27.308C57.7496 28.0511 56.372 28.4227 54.7936 28.4227C53.4506 28.4227 52.2253 28.1131 51.1177 27.4938C50.0239 26.8607 49.1586 25.9868 48.5217 24.872C47.8848 23.7573 47.5664 22.498 47.5664 21.0943Z" stroke="#5C5C5C" mask="url(#path-1-outside-1)"/>
<path d="M69.2784 28.4847C68.2123 28.4847 67.2431 28.2438 66.3709 27.7621C65.5125 27.2805 64.8341 26.5992 64.3356 25.7184C63.8511 24.8239 63.6088 23.7917 63.6088 22.6219C63.6088 21.4658 63.858 20.4474 64.3564 19.5666C64.8687 18.6721 65.561 17.9908 66.4332 17.5229C67.3055 17.0412 68.2815 16.8004 69.3615 16.8004C70.4414 16.8004 71.4175 17.0412 72.2897 17.5229C73.162 17.9908 73.8473 18.6652 74.3458 19.546C74.858 20.4268 75.1142 21.4521 75.1142 22.6219C75.1142 23.7917 74.8511 24.8239 74.325 25.7184C73.8127 26.5992 73.1135 27.2805 72.2274 27.7621C71.3413 28.2438 70.3583 28.4847 69.2784 28.4847ZM69.2784 26.8332C69.9568 26.8332 70.5937 26.6749 71.189 26.3584C71.7844 26.0418 72.2621 25.567 72.622 24.934C72.9958 24.3009 73.1828 23.5302 73.1828 22.6219C73.1828 21.7136 73.0028 20.9429 72.6428 20.3098C72.2828 19.6767 71.8121 19.2088 71.2306 18.906C70.6491 18.5895 70.0191 18.4312 69.3407 18.4312C68.6484 18.4312 68.0116 18.5895 67.4301 18.906C66.8624 19.2088 66.4055 19.6767 66.0594 20.3098C65.7132 20.9429 65.5402 21.7136 65.5402 22.6219C65.5402 23.544 65.7063 24.3215 66.0386 24.9546C66.3847 25.5877 66.8416 26.0625 67.4093 26.379C67.9769 26.6818 68.6 26.8332 69.2784 26.8332Z" stroke="#5C5C5C" mask="url(#path-1-outside-1)"/>
<path d="M78.5751 15.1489C78.2151 15.1489 77.9105 15.0251 77.6613 14.7773C77.4121 14.5296 77.2875 14.2268 77.2875 13.869C77.2875 13.5112 77.4121 13.2084 77.6613 12.9607C77.9105 12.713 78.2151 12.5891 78.5751 12.5891C78.9212 12.5891 79.212 12.713 79.4474 12.9607C79.6966 13.2084 79.8212 13.5112 79.8212 13.869C79.8212 14.2268 79.6966 14.5296 79.4474 14.7773C79.212 15.0251 78.9212 15.1489 78.5751 15.1489ZM79.4889 16.9862V28.2989H77.599V16.9862H79.4889Z" stroke="#5C5C5C" mask="url(#path-1-outside-1)"/>
<path d="M88.2549 16.7798C89.6394 16.7798 90.7609 17.1995 91.6193 18.039C92.4777 18.8648 92.9069 20.0621 92.9069 21.631V28.2989H91.0378V21.8994C91.0378 20.7708 90.7539 19.9107 90.1863 19.3189C89.6186 18.7134 88.8433 18.4106 87.8603 18.4106C86.8634 18.4106 86.0673 18.7203 85.472 19.3396C84.8905 19.9589 84.5997 20.8603 84.5997 22.0439V28.2989H82.7099V16.9862H84.5997V18.5964C84.9736 18.0184 85.4789 17.5711 86.1158 17.2546C86.7665 16.938 87.4795 16.7798 88.2549 16.7798Z" stroke="#5C5C5C" mask="url(#path-1-outside-1)"/>
<path d="M103.242 20.8878C103.768 20.9704 104.246 21.1837 104.675 21.5278C105.118 21.8718 105.464 22.2985 105.713 22.8077C105.976 23.3169 106.108 23.8605 106.108 24.4385C106.108 25.1679 105.921 25.8285 105.547 26.4203C105.173 26.9983 104.626 27.4594 103.907 27.8034C103.2 28.1337 102.363 28.2989 101.394 28.2989H95.994V13.9103H101.186C102.169 13.9103 103.007 14.0754 103.699 14.4057C104.391 14.7223 104.91 15.1558 105.256 15.7063C105.603 16.2568 105.776 16.8761 105.776 17.5642C105.776 18.4175 105.54 19.1262 105.07 19.6905C104.613 20.241 104.003 20.6401 103.242 20.8878ZM97.8839 20.124H101.061C101.947 20.124 102.633 19.9176 103.117 19.5047C103.602 19.0918 103.844 18.5207 103.844 17.7913C103.844 17.0619 103.602 16.4907 103.117 16.0779C102.633 15.665 101.934 15.4586 101.02 15.4586H97.8839V20.124ZM101.227 26.7506C102.169 26.7506 102.903 26.5304 103.429 26.09C103.955 25.6496 104.218 25.0372 104.218 24.2527C104.218 23.4545 103.941 22.8283 103.387 22.3742C102.834 21.9062 102.093 21.6723 101.165 21.6723H97.8839V26.7506H101.227Z" stroke="#5C5C5C" mask="url(#path-1-outside-1)"/>
<path d="M108.024 22.6012C108.024 21.4452 108.26 20.4337 108.731 19.5666C109.201 18.6858 109.845 18.0046 110.662 17.5229C111.493 17.0412 112.413 16.8004 113.424 16.8004C114.421 16.8004 115.286 17.0137 116.02 17.4404C116.754 17.867 117.301 18.4037 117.661 19.0505V16.9862H119.571V28.2989H117.661V26.1932C117.287 26.8538 116.726 27.4043 115.979 27.8447C115.245 28.2713 114.386 28.4847 113.403 28.4847C112.393 28.4847 111.479 28.2369 110.662 27.7415C109.845 27.246 109.201 26.551 108.731 25.6565C108.26 24.7619 108.024 23.7435 108.024 22.6012ZM117.661 22.6219C117.661 21.7686 117.488 21.0254 117.142 20.3924C116.795 19.7593 116.325 19.2776 115.729 18.9473C115.148 18.6033 114.504 18.4312 113.798 18.4312C113.092 18.4312 112.448 18.5964 111.866 18.9267C111.285 19.257 110.821 19.7387 110.475 20.3717C110.129 21.0048 109.956 21.748 109.956 22.6012C109.956 23.4683 110.129 24.2252 110.475 24.872C110.821 25.5051 111.285 25.9937 111.866 26.3377C112.448 26.668 113.092 26.8332 113.798 26.8332C114.504 26.8332 115.148 26.668 115.729 26.3377C116.325 25.9937 116.795 25.5051 117.142 24.872C117.488 24.2252 117.661 23.4752 117.661 22.6219Z" stroke="#5C5C5C" mask="url(#path-1-outside-1)"/>
<path d="M126.794 28.4847C125.922 28.4847 125.14 28.3402 124.447 28.0511C123.755 27.7484 123.208 27.3355 122.807 26.8125C122.405 26.2758 122.184 25.6634 122.142 24.9753H124.094C124.15 25.5395 124.413 26.0006 124.883 26.3584C125.368 26.7162 125.998 26.8951 126.773 26.8951C127.493 26.8951 128.061 26.7368 128.476 26.4203C128.892 26.1038 129.099 25.7047 129.099 25.223C129.099 24.7275 128.878 24.3628 128.435 24.1289C127.992 23.8811 127.306 23.6403 126.379 23.4063C125.534 23.1861 124.842 22.9659 124.302 22.7457C123.776 22.5118 123.319 22.1746 122.931 21.7342C122.557 21.2801 122.37 20.6883 122.37 19.9589C122.37 19.3808 122.544 18.851 122.89 18.3693C123.236 17.8876 123.727 17.5092 124.364 17.2339C125.001 16.9449 125.728 16.8004 126.545 16.8004C127.805 16.8004 128.822 17.1169 129.598 17.75C130.373 18.3831 130.788 19.2501 130.844 20.3511H128.954C128.912 19.7593 128.67 19.2845 128.227 18.9267C127.798 18.5689 127.216 18.39 126.483 18.39C125.804 18.39 125.264 18.5345 124.863 18.8235C124.461 19.1125 124.26 19.4909 124.26 19.9589C124.26 20.3305 124.378 20.6401 124.613 20.8878C124.863 21.1218 125.167 21.3145 125.527 21.4658C125.901 21.6035 126.413 21.7617 127.064 21.9406C127.881 22.1608 128.545 22.381 129.058 22.6012C129.57 22.8077 130.006 23.1242 130.366 23.5508C130.74 23.9775 130.934 24.5349 130.948 25.223C130.948 25.8423 130.775 26.3997 130.428 26.8951C130.082 27.3905 129.591 27.7828 128.954 28.0718C128.331 28.347 127.611 28.4847 126.794 28.4847Z" stroke="#5C5C5C" mask="url(#path-1-outside-1)"/>
<path d="M143.999 22.209C143.999 22.5668 143.979 22.9453 143.937 23.3444H134.841C134.91 24.4592 135.291 25.3331 135.983 25.9661C136.689 26.5855 137.541 26.8951 138.537 26.8951C139.354 26.8951 140.033 26.7093 140.573 26.3377C141.127 25.9524 141.514 25.4432 141.736 24.8101H143.771C143.466 25.8973 142.857 26.785 141.943 27.4731C141.03 28.1475 139.894 28.4847 138.537 28.4847C137.458 28.4847 136.488 28.2438 135.63 27.7621C134.785 27.2805 134.121 26.5992 133.636 25.7184C133.152 24.8239 132.909 23.7917 132.909 22.6219C132.909 21.4521 133.145 20.4268 133.615 19.546C134.086 18.6652 134.744 17.9908 135.588 17.5229C136.447 17.0412 137.43 16.8004 138.537 16.8004C139.617 16.8004 140.573 17.0344 141.403 17.5023C142.234 17.9702 142.871 18.617 143.314 19.4428C143.771 20.2548 143.999 21.1768 143.999 22.209ZM142.047 21.8168C142.047 21.1011 141.888 20.4887 141.57 19.9795C141.251 19.4565 140.815 19.0643 140.261 18.8028C139.721 18.5276 139.119 18.39 138.454 18.39C137.499 18.39 136.682 18.6927 136.004 19.2983C135.339 19.9038 134.958 20.7433 134.862 21.8168H142.047Z" stroke="#5C5C5C" mask="url(#path-1-outside-1)"/>
<path d="M26.2509 30.6042H35.5233C37.5204 30.6042 39.0896 28.7971 39.0896 26.6888C39.0896 24.5806 37.5204 22.7735 35.5233 22.7735C34.81 22.7735 34.0968 22.7735 33.3835 22.7735C36.2366 16.2982 34.81 1.99219 21.9713 1.99219C13.4122 1.99219 9.13262 7.26282 9.13262 17.9547H7.70609C4.56774 17.9547 2 20.8159 2 24.2794C2 27.743 4.56774 30.6042 7.70609 30.6042H14.8387H26.2509Z" stroke="url(#paint0_linear)" stroke-width="3" stroke-linecap="round" stroke-linejoin="round"/>
<path d="M24.331 15.5359C24.6185 14.8403 24.6683 14.0447 24.4118 13.2767C23.9559 11.9122 22.6769 11.0604 21.3048 11.0585L21.1454 10.5812L21.1453 10.5811C21.0071 10.1674 20.5603 9.95852 20.1588 10.0927C19.7581 10.2265 19.525 10.6615 19.6635 11.0762L19.7679 11.3887L19.6383 11.432L19.534 11.1196C19.5339 11.1196 19.5339 11.1195 19.5339 11.1195C19.3954 10.7048 18.9476 10.4973 18.547 10.6311C18.1463 10.765 17.9132 11.2 18.0517 11.6147L18.1561 11.9271L17.873 12.0217L17.8727 12.021L17.3985 12.1794L16.2353 12.568C15.8341 12.702 15.6017 13.1374 15.7402 13.5519C15.8787 13.9665 16.3261 14.1747 16.7273 14.0407L17.0533 13.9318L19.8872 22.4145L19.5612 22.5234C19.1601 22.6575 18.9276 23.0928 19.0661 23.5074C19.2046 23.922 19.6521 24.1301 20.0532 23.9961L21.9738 23.3545L22.0778 23.6658C22.2163 24.0804 22.6638 24.2886 23.0649 24.1546C23.466 24.0206 23.6985 23.5852 23.56 23.1706L23.456 22.8593L23.5856 22.816L23.6896 23.1273C23.8281 23.542 24.2755 23.7501 24.6767 23.6161C25.0787 23.4818 25.3096 23.046 25.1714 22.6323L25.0652 22.3145C26.8053 21.6131 27.7398 19.6879 27.1416 17.8972C26.7098 16.6049 25.5972 15.7367 24.331 15.5359ZM24.3626 20.9194L21.369 21.9195L20.1107 18.1531L22.3041 17.4204C22.3213 17.4146 22.3378 17.4086 22.3491 17.4045L23.104 17.1523C23.622 16.9792 24.1713 17.0153 24.6545 17.2511L24.6547 17.2512C25.1375 17.4865 25.4923 17.891 25.6597 18.3923C25.8273 18.8938 25.7868 19.43 25.5424 19.9089L25.5423 19.9091C25.2982 20.3878 24.8809 20.7462 24.3626 20.9194ZM21.8473 15.9355L19.6186 16.68L18.5354 13.4375L20.7287 12.7048C21.1754 12.5555 21.6486 12.5865 22.0646 12.7895L22.0648 12.7896C22.4806 12.9922 22.7858 13.3404 22.9299 13.7718C23.074 14.2031 23.0393 14.6644 22.8288 15.0764L22.8285 15.0768C22.6237 15.4786 22.2779 15.7819 21.8473 15.9355Z" fill="url(#paint1_linear)" stroke="url(#paint2_linear)"/>
<defs>
<linearGradient id="paint0_linear" x1="22.3993" y1="-2.51155" x2="23.6451" y2="48.1948" gradientUnits="userSpaceOnUse">
<stop stop-color="#FD749B"/>
<stop offset="1" stop-color="#281AC8"/>
</linearGradient>
<linearGradient id="paint1_linear" x1="19.5168" y1="8.63399" x2="28.061" y2="30.5052" gradientUnits="userSpaceOnUse">
<stop stop-color="#FD749B"/>
<stop offset="1" stop-color="#281AC8"/>
</linearGradient>
<linearGradient id="paint2_linear" x1="19.5168" y1="8.63399" x2="28.061" y2="30.5052" gradientUnits="userSpaceOnUse">
<stop stop-color="#FD749B"/>
<stop offset="1" stop-color="#281AC8"/>
</linearGradient>
</defs>
</svg>
