<svg width="25" height="34" viewBox="0 0 25 34" fill="none" xmlns="http://www.w3.org/2000/svg">
<path d="M19.8383 15.9442C21.7777 14.851 22.8259 12.6626 22.4645 10.4673C22.0156 7.07809 17.9754 5.79857 14.788 5.5293V0.434143H11.6456V5.48445H9.53572V0.434143H6.39329V5.48445H0.0634766V8.73913H2.42029C3.47528 8.73913 3.9915 9.05337 3.9915 9.90626V23.89C3.9915 25.0572 3.40788 25.4164 2.7794 25.4164H0.377719V28.7384H6.48301V33.9009H9.64786V28.7384H11.7577V33.9009H14.8329V28.7384H15.5062C21.9706 28.7384 24.1254 25.5735 24.1254 21.264C24.0738 18.7229 22.3118 16.5367 19.8383 15.9442ZM9.5356 8.94111H11.7802C13.3514 8.94111 16.4489 9.21049 16.4489 11.7693C16.5567 13.4393 15.3468 14.9028 13.688 15.1137H9.5356V8.94111ZM13.0147 25.102V25.0796H9.5356V18.3458H13.5759C14.5186 18.3458 18.065 18.6601 18.065 21.174C18.065 23.6879 16.3816 25.102 13.0147 25.102Z" fill="url(#paint0_linear)"/>
<defs>
<linearGradient id="paint0_linear" x1="13.2976" y1="-4.83378" x2="15.9212" y2="54.3958" gradientUnits="userSpaceOnUse">
<stop stop-color="#FD749B"/>
<stop offset="1" stop-color="#281AC8"/>
</linearGradient>
</defs>
</svg>
